{"glyphs":{":":{"x_min":0,"x_max":188,"ha":188,"o":""},"$":{"x_min":0,"x_max":540,"ha":540,"o":"m 323 -8 l 323 -141 l 244 -141 l 244 -11 q 182 -9 128 10 q 75 29 33 62 l 77 128 q 117 97 168 82 q 218 66 263 66 q 335 66 372 92 q 410 118 410 171 q 410 202 396 222 q 383 242 352 258 q 322 275 265 295 l 248 301 q 185 323 146 344 q 107 366 83 401 q 59 436 59 489 q 59 539 84 576 q 109 612 151 632 q 193 653 244 658 l 244 789 l 323 789 l 323 658 q 415 649 495 596 l 453 530 q 409 558 368 570 q 327 583 276 583 q 223 583 188 561 q 153 539 153 493 q 153 469 164 451 q 176 433 204 417 q 233 401 284 383 l 301 377 q 368 354 408 334 q 448 313 477 274 q 506 236 506 175 q 506 97 458 50 q 410 3 323 -8 z"},"?":{"x_min":0,"x_max":455,"ha":455,"o":"m 171 232 q 171 283 192 322 q 212 361 264 401 q 300 430 313 450 q 326 469 326 493 q 326 532 298 554 q 271 577 221 577 q 183 577 144 560 q 105 542 71 513 l 20 573 q 63 613 118 636 q 173 660 231 660 q 285 660 328 642 q 371 623 396 587 q 420 551 420 501 q 420 453 402 420 q 383 386 337 354 q 306 332 288 312 q 270 291 262 268 q 255 244 255 213 l 255 203 l 171 195 z m 148 53 q 148 70 156 84 q 165 99 180 108 q 195 116 212 116 q 229 116 244 108 q 259 99 268 84 q 276 70 276 53 q 276 36 268 22 q 259 7 244 -2 q 229 -10 212 -10 q 195 -10 180 -2 q 165 7 156 22 q 148 36 148 53 z"},"<":{"x_min":0,"x_max":540,"ha":540,"o":"m 470 393 l 131 256 l 470 118 l 439 48 l 70 198 l 70 313 l 439 463 z"},"'":{"x_min":0,"x_max":240,"ha":240,"o":"m 85 418 l 85 648 l 180 648 l 142 418 z"},"=":{"x_min":0,"x_max":540,"ha":540,"o":"m 70 297 l 70 373 l 470 373 l 470 297 z m 70 137 l 70 213 l 470 213 l 470 137 z"},"a":{"x_min":0,"x_max":468,"ha":468,"o":"m 403 305 l 403 0 l 325 0 l 320 38 q 251 -12 161 -12 q 123 -12 93 2 q 63 17 46 44 q 30 70 30 104 q 30 159 69 196 q 108 232 173 249 q 238 266 317 268 l 317 290 q 317 335 299 356 q 281 376 238 376 q 165 376 86 324 l 48 384 q 144 450 249 450 q 326 450 364 415 q 403 380 403 305 z m 184 61 q 252 61 317 101 l 317 205 q 230 201 176 178 q 122 155 122 113 q 122 87 138 74 q 153 61 184 61 z"},"L":{"x_min":0,"x_max":510,"ha":510,"o":"m 174 80 l 492 80 l 492 0 l 82 0 l 82 648 l 174 648 z"},"3":{"x_min":0,"x_max":540,"ha":540,"o":"m 472 185 q 472 127 444 83 q 417 39 362 14 q 308 -12 229 -12 q 178 -12 130 0 q 83 11 52 28 l 83 97 q 112 83 150 74 q 189 66 228 66 q 299 66 338 96 q 376 125 376 179 q 376 219 361 246 q 346 274 310 288 q 273 303 209 303 l 165 303 l 171 374 l 246 374 q 292 391 318 408 q 344 426 356 448 q 367 470 367 502 q 367 525 354 544 q 341 563 315 574 q 289 586 252 586 q 214 586 172 568 q 131 551 95 523 l 48 577 q 93 616 146 638 q 199 660 255 660 q 321 660 367 639 q 413 618 436 582 q 459 546 459 501 q 459 449 426 411 q 394 373 336 352 q 404 334 438 291 q 472 248 472 185 z"},";":{"x_min":0,"x_max":188,"ha":188,"o":""},"J":{"x_min":0,"x_max":449,"ha":449,"o":"m 0 46 l 48 115 q 77 93 106 82 q 136 70 173 70 q 227 70 255 103 q 283 136 283 195 l 283 648 l 375 648 l 375 192 q 375 119 348 74 q 322 28 278 8 q 233 -12 178 -12 q 75 -12 0 46 z"},"V":{"x_min":0,"x_max":623,"ha":623,"o":"m 514 648 l 606 648 l 606 642 l 367 0 l 255 0 l 17 642 l 17 648 l 113 648 l 314 88 z"},"\"":{"x_min":0,"x_max":400,"ha":400,"o":""},"7":{"x_min":0,"x_max":540,"ha":540,"o":"m 494 648 l 494 612 q 376 454 308 304 q 240 155 217 0 l 119 0 q 140 144 203 282 q 266 421 374 570 l 45 570 l 55 648 z"},"S":{"x_min":0,"x_max":548,"ha":548,"o":"m 30 62 l 74 128 q 114 97 164 82 q 215 66 260 66 q 332 66 370 92 q 407 118 407 171 q 407 202 394 222 q 380 242 350 258 q 319 275 262 295 l 245 301 q 182 323 143 344 q 104 366 80 401 q 56 436 56 489 q 56 545 86 584 q 117 622 167 641 q 217 660 274 660 q 334 660 388 645 q 441 630 492 596 l 450 530 q 406 558 365 570 q 324 583 273 583 q 220 583 185 561 q 150 539 150 493 q 150 469 162 451 q 173 433 202 417 q 230 401 281 383 l 298 377 q 365 354 405 334 q 445 313 474 274 q 503 236 503 175 q 503 114 474 72 q 445 31 391 10 q 337 -12 263 -12 q 193 -12 134 8 q 75 27 30 62 z"},"}":{"x_min":0,"x_max":360,"ha":360,"o":"m 25 -55 q 74 -50 102 -38 q 131 -26 143 -8 q 155 11 155 39 q 155 60 147 118 q 146 129 143 154 q 140 179 140 192 q 140 229 153 254 q 166 279 186 292 q 207 305 231 308 q 207 311 186 324 q 166 337 153 362 q 140 387 140 424 q 140 437 143 462 q 146 487 147 498 q 155 556 155 577 q 155 605 143 624 q 131 642 102 654 q 74 666 25 671 l 39 743 q 139 734 190 696 q 242 659 242 588 q 242 576 240 555 q 237 534 234 513 q 226 451 226 425 q 226 395 235 378 q 244 360 263 352 q 282 344 315 343 l 315 273 q 282 272 263 264 q 244 256 235 238 q 226 221 226 191 q 226 165 234 103 q 237 82 240 62 q 242 41 242 28 q 242 -43 190 -80 q 139 -118 39 -127 z"},"Z":{"x_min":0,"x_max":556,"ha":556,"o":"m 511 648 l 511 603 l 158 80 l 501 80 l 501 0 l 35 0 l 35 45 l 390 568 l 56 568 l 66 648 z"},"x":{"x_min":0,"x_max":445,"ha":445,"o":"m 276 226 l 432 6 l 432 0 l 333 0 l 222 169 l 103 0 l 13 0 l 13 6 l 170 225 l 20 432 l 20 438 l 118 438 l 225 282 l 333 438 l 422 438 l 422 432 z"},")":{"x_min":0,"x_max":360,"ha":360,"o":"m 23 -93 q 78 -38 116 18 q 153 75 175 146 q 197 216 197 303 q 197 390 175 460 q 153 531 116 588 q 78 645 23 700 l 74 743 q 144 679 190 618 q 235 557 261 480 q 287 403 287 303 q 287 204 261 127 q 235 50 189 -11 q 143 -72 74 -136 z"},"&":{"x_min":0,"x_max":668,"ha":668,"o":"m 597 -12 l 491 78 q 385 -12 257 -12 q 197 -12 148 8 q 100 27 72 65 q 45 103 45 156 q 45 202 62 238 q 80 273 108 298 q 136 324 175 348 q 127 392 107 426 q 87 459 87 499 q 87 542 108 579 q 130 616 170 638 q 211 660 265 660 q 315 660 354 642 q 394 625 417 592 q 440 559 440 516 q 440 474 422 442 q 403 411 374 388 q 346 365 303 340 l 487 185 q 530 238 567 318 l 646 286 q 602 195 548 134 l 653 46 z m 246 388 q 299 417 327 445 q 355 473 355 513 q 355 534 344 552 q 333 570 312 581 q 292 592 265 592 q 218 592 196 566 q 173 539 173 500 q 173 473 188 450 q 204 426 246 388 z m 432 128 l 232 298 q 186 269 162 238 q 137 206 137 162 q 137 136 152 114 q 166 92 194 79 q 223 66 263 66 q 359 66 432 128 z"},"_":{"x_min":0,"x_max":540,"ha":540,"o":"m 50 -153 l 50 -77 l 490 -77 l 490 -153 z"},"v":{"x_min":0,"x_max":451,"ha":451,"o":"m 442 438 l 442 432 l 267 0 l 188 0 l 9 432 l 9 438 l 103 438 l 209 156 q 213 146 225 110 l 231 91 q 241 125 252 156 l 352 438 z"},"O":{"x_min":0,"x_max":701,"ha":701,"o":"m 45 326 q 45 438 87 513 q 129 588 199 624 q 269 660 354 660 q 451 660 519 618 q 587 575 622 499 q 656 423 656 322 q 656 210 614 135 q 572 60 502 24 q 432 -12 347 -12 q 250 -12 182 30 q 114 73 80 149 q 45 225 45 326 z m 560 321 q 560 399 538 458 q 515 516 469 549 q 423 582 354 582 q 283 582 236 550 q 188 517 164 460 q 141 403 141 327 q 141 249 164 190 q 186 132 232 99 q 278 66 347 66 q 418 66 466 98 q 513 131 536 188 q 560 245 560 321 z"},"(":{"x_min":0,"x_max":360,"ha":360,"o":"m 73 303 q 73 403 99 480 q 125 557 170 618 q 216 679 286 743 l 337 700 q 282 645 244 588 q 207 531 185 460 q 163 390 163 303 q 163 216 185 146 q 207 75 244 18 q 282 -38 337 -93 l 286 -136 q 217 -72 171 -11 q 125 50 99 127 q 73 204 73 303 z"},"C":{"x_min":0,"x_max":573,"ha":573,"o":"m 45 322 q 45 440 86 516 q 128 591 195 626 q 262 660 342 660 q 403 660 454 645 q 506 630 553 601 l 513 531 q 435 580 346 580 q 242 580 192 512 q 143 444 143 327 q 143 206 195 137 q 247 68 348 68 q 399 68 440 81 q 481 94 522 118 l 559 51 q 506 20 456 4 q 405 -12 344 -12 q 244 -12 177 29 q 110 70 78 145 q 45 220 45 322 z"},"W":{"x_min":0,"x_max":917,"ha":917,"o":"m 895 648 l 895 642 l 714 0 l 604 0 l 495 398 q 473 478 458 565 q 451 528 442 484 q 433 440 422 398 l 317 0 l 207 0 l 22 642 l 22 648 l 115 648 l 227 240 q 244 179 264 87 q 279 183 295 240 l 408 648 l 516 648 l 631 240 q 643 197 665 86 q 671 122 681 164 q 691 206 700 240 l 805 648 z"},"A":{"x_min":0,"x_max":633,"ha":633,"o":"m 372 648 l 616 6 l 616 0 l 520 0 l 452 185 l 176 185 l 109 0 l 17 0 l 17 6 l 260 648 z m 204 261 l 424 261 l 314 561 z"},"f":{"x_min":0,"x_max":323,"ha":323,"o":"m 186 528 l 186 438 l 322 438 l 313 370 l 186 370 l 186 0 l 100 0 l 100 370 l 20 370 l 20 438 l 100 438 l 100 526 q 100 576 119 614 q 138 652 174 673 q 209 694 257 694 q 312 694 358 677 l 336 609 q 299 622 261 622 q 223 622 204 598 q 186 573 186 528 z"},"Q":{"x_min":0,"x_max":701,"ha":701,"o":"m 629 -143 l 402 -8 q 378 -12 347 -12 q 250 -12 182 30 q 114 73 80 149 q 45 225 45 326 q 45 438 87 513 q 129 588 199 624 q 269 660 354 660 q 451 660 519 618 q 587 575 622 499 q 656 423 656 322 q 656 212 612 136 q 568 60 494 22 l 678 -69 z m 347 66 q 418 66 466 98 q 513 131 536 188 q 560 245 560 321 q 560 399 538 458 q 515 516 469 549 q 423 582 354 582 q 283 582 236 550 q 188 517 164 460 q 141 403 141 327 q 141 249 164 190 q 186 132 232 99 q 278 66 347 66 z"},"w":{"x_min":0,"x_max":668,"ha":668,"o":"m 656 438 l 656 432 l 524 0 l 438 0 l 358 268 q 342 324 337 347 q 333 325 317 268 l 237 0 l 156 0 l 12 432 l 12 438 l 106 438 l 185 163 q 190 146 200 102 q 206 137 214 163 l 294 438 l 388 438 l 468 163 q 476 135 485 92 q 492 134 499 163 l 572 438 z"},"-":{"x_min":0,"x_max":380,"ha":380,"o":"m 50 228 l 50 308 l 330 308 l 330 228 z"},"E":{"x_min":0,"x_max":541,"ha":541,"o":"m 174 78 l 492 78 l 492 0 l 82 0 l 82 648 l 487 648 l 487 570 l 174 570 l 174 368 l 448 368 l 438 292 l 174 292 z"},"s":{"x_min":0,"x_max":421,"ha":421,"o":"m 20 47 l 58 108 q 131 56 210 56 q 255 56 279 72 q 303 87 303 117 q 303 141 282 158 q 260 176 206 190 l 175 198 q 105 216 72 246 q 40 275 40 324 q 40 361 61 390 q 82 418 120 434 q 157 450 204 450 q 249 450 290 440 q 332 429 375 404 l 340 343 q 299 365 269 374 q 239 382 205 382 q 169 382 148 368 q 128 353 128 329 q 128 308 144 296 q 161 285 202 274 l 233 266 q 290 251 324 232 q 359 213 375 186 q 391 160 391 123 q 391 83 370 52 q 350 22 310 5 q 270 -12 213 -12 q 154 -12 107 2 q 60 17 20 47 z"},">":{"x_min":0,"x_max":540,"ha":540,"o":"m 101 463 l 470 313 l 470 198 l 101 48 l 70 118 l 409 255 l 70 393 z"},"l":{"x_min":0,"x_max":226,"ha":226,"o":"m 70 0 l 70 688 l 156 698 l 156 0 z"},"8":{"x_min":0,"x_max":540,"ha":540,"o":"m 512 169 q 512 113 484 72 q 457 31 404 10 q 350 -12 274 -12 q 199 -12 144 10 q 89 32 60 72 q 32 112 32 166 q 32 223 68 266 q 104 308 182 344 q 129 372 98 409 q 66 446 66 499 q 66 549 93 586 q 120 622 168 641 q 216 660 276 660 q 342 660 388 638 q 434 617 457 581 q 480 545 480 503 q 480 455 448 414 q 415 374 359 344 q 411 319 444 296 q 476 273 494 242 q 512 211 512 169 z m 160 497 q 160 471 174 450 q 189 430 218 412 q 246 394 293 373 q 339 394 362 425 q 386 456 386 490 q 386 535 357 560 q 328 586 274 586 q 219 586 190 562 q 160 537 160 497 z m 416 164 q 416 201 394 228 q 372 254 340 271 q 307 288 248 313 q 181 286 154 252 q 128 219 128 180 q 128 146 144 120 q 161 93 194 78 q 228 62 275 62 q 322 62 354 76 q 386 90 401 114 q 416 137 416 164 z"},"\\":{"x_min":0,"x_max":500,"ha":500,"o":"m 379 -138 l 45 748 l 120 772 l 455 -114 z"},"e":{"x_min":0,"x_max":464,"ha":464,"o":"m 427 204 l 122 204 q 123 129 158 95 q 194 61 250 61 q 290 61 320 71 q 349 81 385 102 l 418 41 q 336 -12 246 -12 q 150 -12 92 42 q 35 95 35 211 q 35 277 59 331 q 83 385 130 418 q 178 450 247 450 q 305 450 346 426 q 387 403 408 362 q 429 321 429 268 z m 127 267 l 345 267 l 345 271 q 345 327 320 355 q 294 383 247 383 q 195 383 166 352 q 136 321 127 267 z"},"b":{"x_min":0,"x_max":512,"ha":512,"o":"m 477 232 q 477 145 440 90 q 402 36 345 12 q 288 -12 227 -12 q 160 -12 70 17 l 70 688 l 156 698 l 156 411 q 227 450 303 450 q 361 450 400 422 q 439 393 458 344 q 477 294 477 232 z m 385 234 q 385 302 359 339 q 333 376 279 376 q 220 376 156 347 l 156 67 q 194 59 224 59 q 295 59 340 100 q 385 140 385 234 z"},"%":{"x_min":0,"x_max":960,"ha":960,"o":"m 50 471 q 50 530 76 572 q 101 615 144 638 q 188 660 242 660 q 295 660 338 638 q 382 615 408 572 q 433 530 433 471 q 433 411 408 368 q 382 325 338 302 q 295 280 242 280 q 188 280 144 302 q 101 325 76 368 q 50 411 50 471 z m 280 -12 l 221 27 l 681 660 l 740 622 z m 347 470 q 347 505 335 532 q 323 560 299 576 q 275 591 242 591 q 208 591 184 576 q 161 560 148 533 q 136 506 136 472 q 136 437 148 409 q 161 381 184 365 q 208 349 242 349 q 275 349 298 365 q 322 381 334 408 q 347 436 347 470 z m 527 179 q 527 238 552 280 q 578 323 622 346 q 665 368 719 368 q 772 368 816 346 q 859 323 884 280 q 910 238 910 179 q 910 119 884 76 q 859 33 816 10 q 772 -12 719 -12 q 665 -12 622 10 q 578 33 552 76 q 527 119 527 179 z m 824 178 q 824 213 812 240 q 800 268 776 284 q 752 299 719 299 q 685 299 662 284 q 638 268 626 241 q 613 214 613 180 q 613 145 626 117 q 638 89 662 73 q 685 57 719 57 q 752 57 776 73 q 799 89 812 116 q 824 144 824 178 z"},"m":{"x_min":0,"x_max":771,"ha":771,"o":"m 706 314 l 706 0 l 620 0 l 620 279 q 620 316 613 336 q 606 357 591 366 q 576 375 549 375 q 520 375 488 366 q 456 358 428 344 q 430 324 430 314 l 430 0 l 344 0 l 344 279 q 344 316 338 336 q 331 357 316 366 q 301 375 274 375 q 246 375 215 366 q 184 358 156 345 l 156 0 l 70 0 l 70 438 l 156 448 l 156 406 q 233 450 306 450 q 380 450 410 401 q 446 422 492 436 q 537 450 581 450 q 638 450 672 418 q 706 386 706 314 z"},"#":{"x_min":0,"x_max":540,"ha":540,"o":"m 524 436 l 439 436 l 406 219 l 483 219 l 483 153 l 396 153 l 373 0 l 295 0 l 318 153 l 172 153 l 149 0 l 71 0 l 94 153 l 16 153 l 16 219 l 104 219 l 137 436 l 57 436 l 57 502 l 147 502 l 169 648 l 247 648 l 225 502 l 371 502 l 393 648 l 471 648 l 449 502 l 524 502 z m 328 219 l 361 436 l 215 436 l 182 219 z"},",":{"x_min":0,"x_max":188,"ha":188,"o":"m 27 -121 q 74 -56 74 -23 q 74 -14 70 -8 q 65 -3 56 4 q 43 14 36 24 q 30 33 30 53 q 30 79 48 98 q 67 116 94 116 q 120 116 139 96 q 158 77 158 40 q 158 -45 76 -148 z"},"n":{"x_min":0,"x_max":515,"ha":515,"o":"m 450 311 l 450 0 l 364 0 l 364 279 q 364 316 356 336 q 349 357 332 366 q 314 375 284 375 q 254 375 220 366 q 186 358 156 344 l 156 0 l 70 0 l 70 438 l 156 448 l 156 406 q 240 450 316 450 q 450 450 450 311 z"},"h":{"x_min":0,"x_max":513,"ha":513,"o":"m 448 314 l 448 0 l 362 0 l 362 279 q 362 316 354 336 q 347 357 330 366 q 312 375 282 375 q 252 375 218 367 q 185 359 156 345 l 156 0 l 70 0 l 70 688 l 156 698 l 156 407 q 238 450 314 450 q 376 450 412 418 q 448 386 448 314 z"},"z":{"x_min":0,"x_max":421,"ha":421,"o":"m 148 74 l 391 74 l 391 0 l 25 0 l 25 39 l 269 364 l 42 364 l 52 438 l 390 438 l 390 400 z"},"B":{"x_min":0,"x_max":596,"ha":596,"o":"m 551 181 q 551 129 524 88 q 498 47 445 24 q 392 0 316 0 l 82 0 l 82 648 l 308 648 q 376 648 425 626 q 474 605 500 568 q 526 530 526 481 q 526 434 500 397 q 473 360 416 341 q 485 324 518 280 q 551 236 551 181 z m 174 572 l 174 368 l 295 368 q 356 368 394 394 q 432 419 432 475 q 432 503 418 525 q 404 547 376 560 q 349 572 310 572 z m 454 183 q 454 234 420 264 q 386 294 319 294 l 174 294 l 174 76 l 318 76 q 390 76 422 106 q 454 136 454 183 z"},"K":{"x_min":0,"x_max":592,"ha":592,"o":"m 282 337 l 582 6 l 582 0 l 471 0 l 174 331 l 174 0 l 82 0 l 82 648 l 174 648 l 174 339 l 465 648 l 570 648 l 570 642 z"},"R":{"x_min":0,"x_max":581,"ha":581,"o":"m 563 6 l 563 0 l 457 0 l 270 253 l 174 253 l 174 0 l 82 0 l 82 648 l 293 648 q 369 648 422 624 q 474 600 500 557 q 527 514 527 457 q 527 411 510 372 q 492 333 457 304 q 422 276 370 263 z m 174 329 l 279 329 q 354 329 392 362 q 431 394 431 453 q 431 510 396 540 q 360 570 291 570 l 174 570 z"},"T":{"x_min":0,"x_max":577,"ha":577,"o":"m 559 648 l 559 568 l 335 568 l 335 0 l 243 0 l 243 568 l 18 568 l 18 648 z"},"P":{"x_min":0,"x_max":564,"ha":564,"o":"m 537 451 q 537 392 510 344 q 482 296 426 268 q 371 239 290 239 l 174 239 l 174 0 l 82 0 l 82 648 l 298 648 q 375 648 429 624 q 483 599 510 554 q 537 510 537 451 z m 441 447 q 441 507 404 538 q 368 570 296 570 l 174 570 l 174 317 l 283 317 q 362 317 402 351 q 441 385 441 447 z"},"|":{"x_min":0,"x_max":270,"ha":270,"o":"m 96 -186 l 96 755 l 174 755 l 174 -186 z"},"t":{"x_min":0,"x_max":362,"ha":362,"o":"m 347 16 q 295 -12 237 -12 q 175 -12 139 24 q 103 59 103 130 l 103 370 l 15 370 l 15 438 l 103 438 l 103 537 l 189 551 l 189 438 l 337 438 l 328 370 l 189 370 l 189 144 q 189 60 251 60 q 269 60 286 64 q 303 68 323 77 z"},"M":{"x_min":0,"x_max":822,"ha":822,"o":"m 740 648 l 740 0 l 650 0 l 650 498 q 635 455 611 408 l 455 105 l 366 105 l 213 408 q 200 433 188 456 q 177 480 170 497 l 170 0 l 82 0 l 82 648 l 187 648 l 333 362 q 392 246 412 187 q 423 221 442 264 q 462 307 491 362 l 638 648 z"},"g":{"x_min":0,"x_max":498,"ha":498,"o":"m 488 -46 q 488 -92 458 -126 q 429 -161 374 -180 q 319 -198 243 -198 q 146 -198 88 -167 q 30 -136 30 -74 q 30 -36 48 -11 q 67 14 102 36 q 72 57 72 90 q 72 110 84 127 q 95 144 120 162 q 84 182 66 215 q 48 248 48 291 q 48 346 76 382 q 103 418 148 434 q 193 450 248 450 q 276 450 306 445 l 455 507 l 485 437 l 383 408 q 412 386 426 356 q 440 325 440 290 q 440 209 384 172 q 327 135 240 135 q 201 135 173 142 q 160 128 160 111 q 160 100 168 94 q 176 87 194 84 q 212 80 245 77 l 316 71 q 375 66 412 53 q 450 40 469 16 q 488 -8 488 -46 z m 134 292 q 134 249 161 224 q 188 199 246 199 q 354 199 354 289 q 354 334 326 360 q 297 386 244 386 q 187 386 160 360 q 134 334 134 292 z m 397 -58 q 397 -40 385 -28 q 373 -17 348 -10 q 323 -4 282 0 l 211 6 q 179 9 152 15 q 133 -2 122 -22 q 112 -41 112 -61 q 112 -96 144 -114 q 176 -131 245 -131 q 310 -131 354 -114 q 397 -97 397 -58 z"},"j":{"x_min":0,"x_max":226,"ha":226,"o":"m 52 588 q 52 605 60 619 q 69 633 83 642 q 97 650 113 650 q 130 650 144 642 q 158 633 166 619 q 175 605 175 588 q 175 572 166 558 q 158 544 144 536 q 130 527 113 527 q 97 527 83 536 q 69 544 60 558 q 52 572 52 588 z m -80 -179 l -56 -111 q -38 -118 -24 -121 q -10 -124 5 -124 q 39 -124 54 -104 q 70 -85 70 -45 l 70 438 l 156 448 l 156 -43 q 156 -120 120 -159 q 83 -198 15 -198 q -35 -198 -80 -179 z"},"i":{"x_min":0,"x_max":226,"ha":226,"o":"m 51 588 q 51 605 60 619 q 68 633 82 642 q 96 650 112 650 q 129 650 143 642 q 157 633 166 619 q 174 605 174 588 q 174 572 166 558 q 157 544 143 536 q 129 527 112 527 q 96 527 82 536 q 68 544 60 558 q 51 572 51 588 z m 70 0 l 70 438 l 156 448 l 156 0 z"},"y":{"x_min":0,"x_max":448,"ha":448,"o":"m 439 438 l 439 432 l 272 -31 q 250 -92 225 -128 q 200 -165 168 -182 q 137 -198 94 -198 q 50 -198 7 -183 l 30 -117 q 59 -126 87 -126 q 110 -126 126 -119 q 142 -112 158 -92 q 173 -72 188 -32 l 200 0 l 177 0 l 9 432 l 9 438 l 100 438 l 203 158 l 214 128 l 230 81 l 255 158 l 351 438 z"},"@":{"x_min":0,"x_max":908,"ha":908,"o":"m 863 299 q 863 238 842 186 q 822 133 781 102 q 740 70 682 70 q 643 70 616 80 q 590 91 573 114 q 537 91 500 80 q 462 69 428 69 q 371 69 333 96 q 295 124 276 170 q 258 215 258 269 q 258 340 290 388 q 321 436 370 458 q 419 481 470 481 q 557 481 627 449 l 627 198 q 627 169 641 154 q 655 140 685 140 q 732 140 754 184 q 776 228 776 299 q 776 381 746 446 q 716 512 647 551 q 578 590 467 590 q 367 590 292 550 q 216 510 174 434 q 132 359 132 256 q 132 161 170 92 q 209 24 280 -12 q 351 -48 447 -48 q 502 -48 547 -40 q 592 -32 639 -13 l 663 -81 q 611 -104 559 -114 q 507 -123 447 -123 q 331 -123 240 -76 q 148 -29 96 57 q 45 143 45 256 q 45 384 100 476 q 156 567 253 614 q 350 661 474 661 q 596 661 684 614 q 772 566 818 484 q 863 402 863 299 z m 443 140 q 494 140 545 166 l 545 407 q 508 415 475 415 q 438 415 408 399 q 379 383 362 350 q 346 318 346 271 q 346 210 369 175 q 392 140 443 140 z"},".":{"x_min":0,"x_max":188,"ha":188,"o":"m 30 53 q 30 70 38 84 q 47 99 62 108 q 77 116 94 116 q 111 116 126 108 q 141 99 150 84 q 158 70 158 53 q 158 36 150 22 q 141 7 126 -2 q 111 -10 94 -10 q 77 -10 62 -2 q 47 7 38 22 q 30 36 30 53 z"},"p":{"x_min":0,"x_max":512,"ha":512,"o":"m 477 231 q 477 155 448 100 q 418 45 367 16 q 316 -12 251 -12 q 202 -12 156 1 l 156 -186 l 70 -186 l 70 438 l 156 448 l 156 409 q 192 429 228 440 q 263 450 294 450 q 356 450 397 420 q 438 390 458 340 q 477 290 477 231 z m 385 229 q 385 304 355 340 q 325 376 270 376 q 212 376 156 343 l 156 71 q 203 56 244 56 q 285 56 316 74 q 348 93 366 132 q 385 171 385 229 z"},"X":{"x_min":0,"x_max":585,"ha":585,"o":"m 347 337 l 568 0 l 460 0 l 290 273 l 114 0 l 17 0 l 235 333 l 26 648 l 133 648 l 294 396 l 456 648 l 553 648 z"},"*":{"x_min":0,"x_max":500,"ha":500,"o":"m 441 518 l 292 488 l 397 378 l 322 327 l 250 456 l 178 327 l 103 378 l 208 488 l 59 518 l 88 599 l 224 538 l 204 688 l 295 688 l 276 538 l 412 599 z"},"Y":{"x_min":0,"x_max":599,"ha":599,"o":"m 582 648 l 582 642 l 342 253 l 342 0 l 250 0 l 250 256 l 17 642 l 17 648 l 118 648 l 299 337 l 487 648 z"},"c":{"x_min":0,"x_max":419,"ha":419,"o":"m 35 208 q 35 291 67 346 q 99 400 150 425 q 200 450 257 450 q 323 450 395 412 l 363 346 q 328 363 302 370 q 277 377 250 377 q 191 377 158 332 q 125 288 125 208 q 125 130 158 96 q 192 62 249 62 q 283 62 310 72 q 338 83 371 102 l 405 41 q 368 17 328 2 q 289 -12 241 -12 q 147 -12 91 40 q 35 93 35 208 z"},"!":{"x_min":0,"x_max":218,"ha":218,"o":"m 73 193 l 56 648 l 162 648 l 144 200 z m 45 53 q 45 70 54 84 q 62 99 77 108 q 92 116 109 116 q 126 116 141 108 q 156 99 164 84 q 173 70 173 53 q 173 36 164 22 q 156 7 141 -2 q 126 -10 109 -10 q 92 -10 77 -2 q 62 7 54 22 q 45 36 45 53 z"},"/":{"x_min":0,"x_max":500,"ha":500,"o":"m 121 -138 l 45 -114 l 380 772 l 455 748 z"},"[":{"x_min":0,"x_max":360,"ha":360,"o":"m 90 -118 l 90 735 l 340 735 l 340 659 l 178 659 l 178 -42 l 340 -42 l 340 -118 z"},"6":{"x_min":0,"x_max":540,"ha":540,"o":"m 497 207 q 497 130 464 80 q 432 31 381 10 q 330 -12 271 -12 q 200 -12 151 21 q 102 54 78 114 q 53 174 53 255 q 53 385 88 476 q 124 567 186 614 q 248 660 327 660 q 387 660 452 638 l 434 567 q 381 586 324 586 q 246 586 204 526 q 161 465 148 362 q 227 413 302 413 q 355 413 399 391 q 443 369 470 322 q 497 276 497 207 z m 409 199 q 409 272 378 306 q 348 339 276 339 q 244 339 210 326 q 175 314 143 293 q 142 281 142 255 q 142 161 176 112 q 210 63 275 63 q 339 63 374 100 q 409 136 409 199 z"},"r":{"x_min":0,"x_max":360,"ha":360,"o":"m 345 442 l 329 353 q 295 365 267 365 q 235 365 208 351 q 181 337 156 298 l 156 0 l 70 0 l 70 439 l 156 448 l 156 385 q 181 417 214 434 q 247 450 284 450 q 301 450 315 448 q 329 446 345 442 z"},"2":{"x_min":0,"x_max":540,"ha":540,"o":"m 472 78 l 472 0 l 49 0 l 49 44 l 85 80 q 204 200 258 259 q 312 318 342 368 q 373 418 373 462 q 373 518 344 548 q 315 577 262 577 q 219 577 176 558 q 133 539 97 509 l 48 567 q 92 610 150 635 q 209 660 273 660 q 328 660 372 638 q 417 616 442 574 q 468 533 468 478 q 468 419 440 362 q 412 306 357 243 q 302 180 199 78 z"},"{":{"x_min":0,"x_max":360,"ha":360,"o":"m 118 28 q 118 41 120 62 q 123 82 126 103 q 134 165 134 191 q 134 221 125 238 q 116 256 97 264 q 78 272 45 273 l 45 343 q 78 344 97 352 q 116 360 125 378 q 134 395 134 425 q 134 451 126 513 q 123 534 120 555 q 118 576 118 588 q 118 659 170 696 q 221 734 321 743 l 335 671 q 286 666 258 654 q 229 642 217 624 q 205 605 205 577 q 205 556 213 498 q 214 487 217 462 q 220 437 220 424 q 220 387 207 362 q 194 337 174 324 q 153 311 129 308 q 153 305 174 292 q 194 279 207 254 q 220 229 220 192 q 220 179 217 154 q 214 129 213 118 q 205 60 205 39 q 205 11 217 -8 q 229 -26 258 -38 q 286 -50 335 -55 l 321 -127 q 221 -118 170 -80 q 118 -43 118 28 z"},"9":{"x_min":0,"x_max":540,"ha":540,"o":"m 487 397 q 487 263 454 172 q 421 80 359 34 q 297 -12 212 -12 q 148 -12 83 12 l 104 81 q 130 71 160 66 q 189 60 215 60 q 294 60 338 120 q 381 181 396 284 q 359 259 320 244 q 281 228 236 228 q 181 228 138 251 q 94 274 68 322 q 42 371 42 444 q 42 516 75 565 q 108 614 160 637 q 211 660 268 660 q 378 660 432 592 q 487 523 487 397 z m 402 351 q 403 366 403 397 q 403 491 370 540 q 336 590 269 590 q 224 590 192 572 q 160 554 144 522 q 127 489 127 446 q 127 375 159 339 q 191 303 262 303 q 327 303 402 351 z"}," ":{"x_min":0,"x_max":240,"ha":240,"o":""},"I":{"x_min":0,"x_max":256,"ha":256,"o":"m 82 0 l 82 648 l 174 648 l 174 0 z"},"H":{"x_min":0,"x_max":706,"ha":706,"o":"m 532 648 l 624 648 l 624 0 l 532 0 l 532 291 l 174 291 l 174 0 l 82 0 l 82 648 l 174 648 l 174 369 l 532 369 z"},"4":{"x_min":0,"x_max":540,"ha":540,"o":"m 510 227 l 510 149 l 420 149 l 420 0 l 325 0 l 325 149 l 29 149 l 29 188 l 217 648 l 323 648 l 141 227 l 325 227 l 341 431 l 420 431 l 420 227 z"},"~":{"x_min":0,"x_max":540,"ha":540,"o":"m 242 237 q 223 247 212 252 q 201 256 190 256 q 171 256 156 246 q 142 237 130 213 l 70 236 q 93 290 123 314 q 153 338 194 338 q 222 338 245 330 q 268 322 298 307 q 317 297 328 292 q 339 288 350 288 q 369 288 384 298 q 398 307 410 331 l 470 308 q 447 254 417 230 q 387 206 346 206 q 318 206 295 214 q 272 222 242 237 z"},"D":{"x_min":0,"x_max":662,"ha":662,"o":"m 617 324 q 617 215 572 142 q 528 70 448 35 q 368 0 260 0 l 82 0 l 82 648 l 277 648 q 442 648 530 571 q 617 494 617 324 z m 521 324 q 521 451 462 510 q 403 570 279 570 l 174 570 l 174 78 l 249 78 q 337 78 396 99 q 455 120 488 174 q 521 228 521 324 z"},"^":{"x_min":0,"x_max":540,"ha":540,"o":"m 475 327 l 382 327 l 267 557 l 154 327 l 65 327 l 233 648 l 307 648 z"},"0":{"x_min":0,"x_max":540,"ha":540,"o":"m 32 323 q 32 446 68 522 q 103 597 158 628 q 213 660 277 660 q 351 660 402 620 q 454 581 481 506 q 508 430 508 322 q 508 197 474 122 q 439 48 385 18 q 331 -12 264 -12 q 150 -12 91 74 q 32 159 32 323 z m 414 323 q 414 454 378 519 q 342 584 273 584 q 200 584 163 520 q 126 456 126 323 q 126 190 162 127 q 198 64 269 64 q 319 64 351 91 q 383 118 398 175 q 414 232 414 323 z"},"F":{"x_min":0,"x_max":516,"ha":516,"o":"m 487 570 l 174 570 l 174 352 l 447 352 l 437 274 l 174 274 l 174 0 l 82 0 l 82 648 l 487 648 z"},"`":{"x_min":0,"x_max":287,"ha":287,"o":"m 231 489 l 57 584 l 108 655 l 264 528 z"},"k":{"x_min":0,"x_max":461,"ha":461,"o":"m 255 234 l 446 6 l 446 0 l 341 0 l 156 229 l 156 0 l 70 0 l 70 688 l 156 698 l 156 236 l 342 438 l 437 438 l 437 432 z"},"u":{"x_min":0,"x_max":511,"ha":511,"o":"m 441 448 l 441 0 l 364 0 l 359 33 q 282 -12 203 -12 q 142 -12 104 22 q 65 57 65 127 l 65 438 l 151 448 l 151 152 q 151 119 159 100 q 167 80 185 72 q 203 63 235 63 q 283 63 355 100 l 355 438 z"},"]":{"x_min":0,"x_max":360,"ha":360,"o":"m 20 -118 l 20 -42 l 182 -42 l 182 659 l 20 659 l 20 735 l 270 735 l 270 -118 z"},"U":{"x_min":0,"x_max":674,"ha":674,"o":"m 66 259 l 66 648 l 158 648 l 158 279 q 158 68 340 68 q 433 68 474 122 q 516 175 516 273 l 516 648 l 608 648 l 608 262 q 608 167 572 106 q 536 44 474 16 q 413 -12 334 -12 q 244 -12 184 23 q 124 58 95 120 q 66 181 66 259 z"},"o":{"x_min":0,"x_max":507,"ha":507,"o":"m 35 220 q 35 300 65 352 q 95 403 146 426 q 197 450 262 450 q 332 450 379 420 q 426 389 449 337 q 472 285 472 219 q 472 138 442 86 q 412 35 361 12 q 310 -12 245 -12 q 175 -12 128 18 q 81 49 58 102 q 35 154 35 220 z m 382 220 q 382 293 350 336 q 319 380 256 380 q 186 380 156 338 q 125 295 125 220 q 125 146 157 102 q 189 58 253 58 q 382 58 382 220 z"},"N":{"x_min":0,"x_max":696,"ha":696,"o":"m 614 648 l 614 0 l 512 0 l 227 420 l 214 439 q 212 443 202 458 q 191 473 184 486 q 176 499 170 512 l 170 0 l 82 0 l 82 648 l 179 648 l 472 219 q 476 213 489 194 q 502 176 511 160 q 520 145 526 131 l 526 648 z"},"+":{"x_min":0,"x_max":540,"ha":540,"o":"m 229 60 l 229 217 l 70 217 l 70 293 l 229 293 l 229 450 l 311 450 l 311 293 l 470 293 l 470 217 l 311 217 l 311 60 z"},"G":{"x_min":0,"x_max":643,"ha":643,"o":"m 586 359 l 586 43 q 527 15 475 2 q 423 -12 354 -12 q 247 -12 178 31 q 109 74 77 149 q 45 224 45 323 q 45 439 87 514 q 129 590 199 625 q 269 660 354 660 q 417 660 470 645 q 523 630 570 601 l 530 531 q 495 553 454 566 q 412 580 361 580 q 248 580 196 512 q 143 445 143 327 q 143 203 193 136 q 243 68 356 68 q 426 68 494 93 l 494 281 l 328 281 l 338 359 z"},"q":{"x_min":0,"x_max":512,"ha":512,"o":"m 442 421 l 442 -186 l 356 -186 l 356 27 q 286 -12 213 -12 q 156 -12 116 16 q 76 44 56 92 q 35 141 35 203 q 35 292 72 348 q 110 403 167 426 q 224 450 285 450 q 350 450 442 421 z m 356 91 l 356 371 q 318 379 288 379 q 217 379 172 338 q 127 296 127 201 q 127 135 156 98 q 184 62 237 62 q 293 62 356 91 z"},"d":{"x_min":0,"x_max":512,"ha":512,"o":"m 442 698 l 442 0 l 364 0 l 360 32 q 324 11 287 0 q 250 -12 218 -12 q 160 -12 119 14 q 78 41 56 90 q 35 140 35 207 q 35 283 64 338 q 94 393 145 422 q 196 450 261 450 q 304 450 356 437 l 356 688 z m 242 62 q 300 62 356 95 l 356 367 q 311 382 268 382 q 227 382 196 364 q 164 345 146 306 q 127 267 127 209 q 127 134 157 98 q 187 62 242 62 z"},"1":{"x_min":0,"x_max":540,"ha":540,"o":"m 339 78 l 476 78 l 476 0 l 74 0 l 74 78 l 247 78 l 247 549 l 100 466 l 63 521 l 247 648 l 339 648 z"},"5":{"x_min":0,"x_max":540,"ha":540,"o":"m 481 202 q 481 137 454 89 q 428 41 374 14 q 319 -12 238 -12 q 137 -12 59 29 l 91 99 q 160 66 237 66 q 284 66 318 83 q 352 100 370 128 q 387 157 387 193 q 387 237 372 266 q 358 296 322 312 q 286 329 223 329 q 163 329 128 318 l 97 349 l 97 648 l 459 648 l 449 571 l 188 571 l 188 397 q 223 405 256 405 q 365 405 423 352 q 481 299 481 202 z"}}}
